<svg version="1.1" id="Layer_1" xmlns="http://www.w3.org/2000/svg" xmlns:xlink="http://www.w3.org/1999/xlink" x="0px" y="0px"
	 width="100%" viewBox="0 0 185 152" enable-background="new 0 0 185 152" xml:space="preserve">
<path fill="#000000" opacity="1.000000" stroke="none" 
	d="
M91.000000,153.000000 
	C60.666672,153.000000 30.833340,153.000000 1.000008,153.000000 
	C1.000005,102.333344 1.000005,51.666687 1.000003,1.000022 
	C62.666653,1.000014 124.333305,1.000014 185.999969,1.000007 
	C185.999969,51.666641 185.999969,102.333282 185.999985,152.999969 
	C154.500000,153.000000 123.000000,153.000000 91.000000,153.000000 
M118.018440,136.988342 
	C120.213364,133.957077 121.903152,130.319580 124.689377,127.997978 
	C137.753967,117.112038 150.940826,106.353966 164.439484,96.014282 
	C174.008911,88.684319 175.622589,82.241020 168.882309,72.624184 
	C161.361176,61.893238 144.434143,58.288864 133.085098,61.987854 
	C132.248993,62.260368 131.368027,63.131607 130.984650,63.948292 
	C123.066811,80.814796 109.907532,92.692596 94.356026,102.176949 
	C87.120506,106.589661 85.026207,110.626839 87.047363,118.760193 
	C87.514397,120.639603 88.181290,122.518013 89.070435,124.234070 
	C91.140984,128.230240 89.703690,131.231354 86.564232,133.715332 
	C84.911743,135.022781 83.018669,136.026184 80.488327,137.052307 
	C80.011871,137.340942 79.535416,137.629562 79.058952,137.918182 
	C79.809319,138.278534 80.557915,138.948547 81.310318,138.952850 
	C92.843971,139.018829 104.378273,139.019608 115.911766,138.940079 
	C116.555260,138.935623 117.193039,138.100891 118.018440,136.988342 
M58.351982,136.999023 
	C64.291183,135.976578 70.370636,135.450241 76.137970,133.819809 
	C85.698318,131.117111 85.584305,130.826828 82.630188,121.181290 
	C79.519089,111.023247 82.008987,104.532921 90.147888,99.405960 
	C94.543694,96.636909 99.207886,94.172630 103.186249,90.887032 
	C111.920609,83.673645 119.773499,75.523781 125.047806,65.361603 
	C126.160095,63.218529 126.598190,59.871506 125.750954,57.702690 
	C119.812546,42.501247 105.766815,30.538095 87.426735,30.725855 
	C72.606804,30.877571 56.440178,40.951912 52.810791,54.949551 
	C58.075928,58.271301 63.865646,60.631088 67.889427,64.726089 
	C76.844681,73.839859 79.122566,87.741936 66.055618,95.607948 
	C57.827602,100.561012 50.109844,106.376945 42.275211,111.962914 
	C37.046242,115.691116 32.651459,120.617142 33.341648,127.261147 
	C34.067585,134.249207 45.348820,138.905579 50.153671,137.942673 
	C52.545547,137.463348 55.001476,137.303650 58.351982,136.999023 
M66.972305,70.768372 
	C54.424725,53.898197 33.946651,62.360310 24.055889,73.918510 
	C18.981913,79.847885 16.009035,87.013962 15.251096,94.729752 
	C13.988914,107.578720 17.226614,118.983017 26.458300,126.956421 
	C29.645611,121.761749 31.792816,115.669640 36.023678,111.943321 
	C43.300522,105.534302 52.043747,100.824814 59.867451,94.994026 
	C71.728500,86.154305 73.252411,83.097046 66.972305,70.768372 
M157.989380,106.514618 
	C135.234512,122.883408 125.167351,132.197311 123.770599,138.173035 
	C141.150970,143.293320 165.078445,136.235428 173.921860,123.334763 
	C183.348541,109.583206 184.121124,94.513962 178.151489,85.587013 
	C176.401947,88.502724 175.068207,92.140015 172.566635,94.580025 
	C168.261368,98.779350 163.228592,102.232803 157.989380,106.514618 
z"/>
<path fill="#FF1818" opacity="1.000000" stroke="none" 
	d="
M57.890205,136.999191 
	C55.001476,137.303650 52.545547,137.463348 50.153671,137.942673 
	C45.348820,138.905579 34.067585,134.249207 33.341648,127.261147 
	C32.651459,120.617142 37.046242,115.691116 42.275211,111.962914 
	C50.109844,106.376945 57.827602,100.561012 66.055618,95.607948 
	C79.122566,87.741936 76.844681,73.839859 67.889427,64.726089 
	C63.865646,60.631088 58.075928,58.271301 52.810791,54.949551 
	C56.440178,40.951912 72.606804,30.877571 87.426735,30.725855 
	C105.766815,30.538095 119.812546,42.501247 125.750954,57.702690 
	C126.598190,59.871506 126.160095,63.218529 125.047806,65.361603 
	C119.773499,75.523781 111.920609,83.673645 103.186249,90.887032 
	C99.207886,94.172630 94.543694,96.636909 90.147888,99.405960 
	C82.008987,104.532921 79.519089,111.023247 82.630188,121.181290 
	C85.584305,130.826828 85.698318,131.117111 76.137970,133.819809 
	C70.370636,135.450241 64.291183,135.976578 57.890205,136.999191 
z"/>
<path fill="#FF1717" opacity="1.000000" stroke="none" 
	d="
M81.234238,137.166885 
	C83.018669,136.026184 84.911743,135.022781 86.564232,133.715332 
	C89.703690,131.231354 91.140984,128.230240 89.070435,124.234070 
	C88.181290,122.518013 87.514397,120.639603 87.047363,118.760193 
	C85.026207,110.626839 87.120506,106.589661 94.356026,102.176949 
	C109.907532,92.692596 123.066811,80.814796 130.984650,63.948292 
	C131.368027,63.131607 132.248993,62.260368 133.085098,61.987854 
	C144.434143,58.288864 161.361176,61.893238 168.882309,72.624184 
	C175.622589,82.241020 174.008911,88.684319 164.439484,96.014282 
	C150.940826,106.353966 137.753967,117.112038 124.689377,127.997978 
	C121.903152,130.319580 120.213364,133.957077 117.477356,137.421539 
	C108.122025,137.904816 99.307205,138.030319 90.493820,137.964096 
	C87.405472,137.940887 84.320663,137.446243 81.234238,137.166885 
z"/>
<path fill="#FF1818" opacity="1.000000" stroke="none" 
	d="
M67.039864,71.141037 
	C73.252411,83.097046 71.728500,86.154305 59.867451,94.994026 
	C52.043747,100.824814 43.300522,105.534302 36.023678,111.943321 
	C31.792816,115.669640 29.645611,121.761749 26.458300,126.956421 
	C17.226614,118.983017 13.988914,107.578720 15.251096,94.729752 
	C16.009035,87.013962 18.981913,79.847885 24.055889,73.918510 
	C33.946651,62.360310 54.424725,53.898197 67.039864,71.141037 
z"/>
<path fill="#FF1818" opacity="1.000000" stroke="none" 
	d="
M158.245270,106.256958 
	C163.228592,102.232803 168.261368,98.779350 172.566635,94.580025 
	C175.068207,92.140015 176.401947,88.502724 178.151489,85.587013 
	C184.121124,94.513962 183.348541,109.583206 173.921860,123.334763 
	C165.078445,136.235428 141.150970,143.293320 123.770599,138.173035 
	C125.167351,132.197311 135.234512,122.883408 158.245270,106.256958 
z"/>
<path fill="#FFC4C4" opacity="1.000000" stroke="none" 
	d="
M80.861282,137.109589 
	C84.320663,137.446243 87.405472,137.940887 90.493820,137.964096 
	C99.307205,138.030319 108.122025,137.904816 117.384872,137.753677 
	C117.193039,138.100891 116.555260,138.935623 115.911766,138.940079 
	C104.378273,139.019608 92.843971,139.018829 81.310318,138.952850 
	C80.557915,138.948547 79.809319,138.278534 79.058952,137.918182 
	C79.535416,137.629562 80.011871,137.340942 80.861282,137.109589 
z"/>
</svg>